<svg width="33" height="26" viewBox="0 0 33 26" fill="none" xmlns="http://www.w3.org/2000/svg">
<path d="M30.2 9.75V9.25H29.7H6.5113L3.74609 3.78791L2.8 4.01375V22.75V23.25H3.3H29.7H30.2V22.75V9.75ZM13.6458 6.27365L10.7146 0.5H12.8931L16.0542 6.72635L16.1931 7H16.5H21.45H22.2646L21.8958 6.27365L18.9646 0.5H21.1431L24.3042 6.72635L24.4431 7H24.75H29.7H30.5146L30.1458 6.27365L27.2146 0.5H32.5V22.75C32.5 24.2542 31.2461 25.5 29.7 25.5H3.3C1.75392 25.5 0.5 24.2542 0.5 22.75V3.25C0.5 1.74581 1.75392 0.5 3.3 0.5H4.6431L7.80417 6.72635L7.9431 7H8.25H13.2H14.0146L13.6458 6.27365Z" fill="black" stroke="black"/>
</svg>
